<?xml version="1.0" encoding="UTF-8"?>
<svg xmlns="http://www.w3.org/2000/svg" viewBox="0 0 1200 630" width="1200" height="630">
  <defs>
    <linearGradient id="g8907" x1="68.73032967079561%" y1="3.640807271660627%" x2="31.269670329204395%" y2="96.35919272833937%">
      <stop offset="0%" stop-color="#2563EB"/>
      <stop offset="100%" stop-color="#1D4ED8"/>
    </linearGradient>
  </defs>
  <rect width="1200" height="630" fill="url(#g8907)"/>
  <polygon points="242.84611825831234,250 362.84611825831234,190 482.84611825831234,250" fill="rgba(255,255,255,0.06)" stroke="rgba(255,255,255,0.12)" stroke-width="2"/><rect x="256.84611825831234" y="250" width="12" height="150" fill="rgba(255,255,255,0.08)"/><rect x="306.84611825831234" y="250" width="12" height="150" fill="rgba(255,255,255,0.08)"/><rect x="356.84611825831234" y="250" width="12" height="150" fill="rgba(255,255,255,0.08)"/><rect x="406.84611825831234" y="250" width="12" height="150" fill="rgba(255,255,255,0.08)"/><rect x="456.84611825831234" y="250" width="12" height="150" fill="rgba(255,255,255,0.08)"/><rect x="232.84611825831234" y="400" width="260" height="12" rx="2" fill="rgba(255,255,255,0.1)"/><path d="M 852.3836267413571 151.28525828942657 L 897.3836267413571 171.28525828942657 L 897.3836267413571 211.28525828942657 C 897.3836267413571 241.28525828942657 852.3836267413571 261.28525828942657 852.3836267413571 261.28525828942657 C 852.3836267413571 261.28525828942657 807.3836267413571 241.28525828942657 807.3836267413571 211.28525828942657 L 807.3836267413571 171.28525828942657 Z" fill="rgba(255,255,255,0.06)" stroke="rgba(255,255,255,0.15)" stroke-width="2"/><text x="946.7173123499379" y="173.10743159614503" font-family="sans-serif" font-size="24.802767232991755" fill="rgba(255,255,255,0.08317846985999496)">★</text><text x="741.0174098564312" y="128.30214801244438" font-family="sans-serif" font-size="19.303546966053545" fill="rgba(255,255,255,0.09858103852719069)">★</text><text x="766.2245678016916" y="150.96395375207067" font-family="sans-serif" font-size="17.32076812442392" fill="rgba(255,255,255,0.09575650777667762)">★</text><text x="889.5453893579543" y="164.38629386015236" font-family="sans-serif" font-size="26.507589182816446" fill="rgba(255,255,255,0.17954537260346115)">★</text><text x="1010.9725883463398" y="154.5531507395208" font-family="sans-serif" font-size="35.228426460176706" fill="rgba(255,255,255,0.09543323101941496)">★</text>
  <circle cx="1036.36669004336" cy="443.3901049825363" r="2.079173714388162" fill="rgba(255,255,255,0.06349297131644563)"/><circle cx="949.7441911138594" cy="489.8350857035257" r="1.3213001904077828" fill="rgba(255,255,255,0.04365156132960692)"/><circle cx="1051.749666966498" cy="347.3568094871007" r="2.5131961684674025" fill="rgba(255,255,255,0.03889951599529013)"/><circle cx="864.1346446238458" cy="485.1080758078024" r="1.8995733391493559" fill="rgba(255,255,255,0.05255531764822081)"/><circle cx="669.2806927487254" cy="58.667793120257556" r="1.3062182175926864" fill="rgba(255,255,255,0.033475019067991524)"/><circle cx="778.3057811670005" cy="284.0738753741607" r="2.638306738808751" fill="rgba(255,255,255,0.05375030225375667)"/><circle cx="1140.4301047325134" cy="11.297803858760744" r="2.774441639892757" fill="rgba(255,255,255,0.05975016814889386)"/><circle cx="256.8695895373821" cy="199.06070563942194" r="1.8244105563499033" fill="rgba(255,255,255,0.07488984922645614)"/><circle cx="933.817764557898" cy="14.80477433418855" r="1.900593200698495" fill="rgba(255,255,255,0.07461907497607172)"/><circle cx="877.5915574282408" cy="334.6996753010899" r="2.943650265224278" fill="rgba(255,255,255,0.03993393992539495)"/><circle cx="1175.7893764413893" cy="602.5956501555629" r="2.2749453000724316" fill="rgba(255,255,255,0.03340549711836502)"/><circle cx="1187.3220020905137" cy="92.99908736720681" r="1.9956872859038413" fill="rgba(255,255,255,0.07502820398192853)"/><circle cx="658.444394543767" cy="12.393965267110616" r="1.6517962403595448" fill="rgba(255,255,255,0.07901544093154371)"/><circle cx="9.655656572431326" cy="284.63161048013717" r="1.9420513864606619" fill="rgba(255,255,255,0.06222342965891585)"/><circle cx="437.36983705312014" cy="512.9177393484861" r="2.2373241423629224" fill="rgba(255,255,255,0.0595770846423693)"/><circle cx="718.8426026143134" cy="55.93173347879201" r="1.4113051071763039" fill="rgba(255,255,255,0.04170204618247226)"/><circle cx="842.5671268254519" cy="180.95833980711177" r="1.8511398723348975" fill="rgba(255,255,255,0.045582627721596505)"/><circle cx="919.7797738015652" cy="256.6466339863837" r="2.636708971578628" fill="rgba(255,255,255,0.07783980917418376)"/><circle cx="145.42091405019164" cy="192.46486638206989" r="2.90326576679945" fill="rgba(255,255,255,0.06598628755426034)"/><circle cx="1046.7863576486707" cy="524.9681200948544" r="2.6402770304121077" fill="rgba(255,255,255,0.03701129393419251)"/>
  <text x="600" y="335" font-family="system-ui, -apple-system, 'Segoe UI', sans-serif" font-size="68" font-weight="700" fill="rgba(0,0,0,0.15)" text-anchor="middle" letter-spacing="1">NDA</text>
  <text x="600" y="332" font-family="system-ui, -apple-system, 'Segoe UI', sans-serif" font-size="68" font-weight="700" fill="white" text-anchor="middle" letter-spacing="1">NDA</text>
  <g transform="translate(1140, 575)">
    <rect x="0" y="0" width="40" height="40" rx="8" fill="rgba(255,255,255,0.15)"/>
    <text x="20" y="29" font-family="sans-serif" font-weight="bold" font-size="24" fill="rgba(255,255,255,0.6)" text-anchor="middle">K</text>
  </g>
</svg>